<mxfile host="app.diagrams.net" modified="2023-03-05T09:24:13.241Z" agent="5.0 (X11; Linux x86_64) AppleWebKit/537.36 (KHTML, like Gecko) QtWebEngine/6.4.2 Chrome/102.0.5005.177 Safari/537.36" etag="rO-0EVzycpPfdppdIppV" version="21.0.2" type="github">
  <diagram name="Page-1" id="brTqjVfwMc_5Q8qGockZ">
    <mxGraphModel dx="3397" dy="1940" grid="1" gridSize="10" guides="1" tooltips="1" connect="1" arrows="1" fold="1" page="1" pageScale="1" pageWidth="1600" pageHeight="1400" math="0" shadow="0">
      <root>
        <mxCell id="0" />
        <mxCell id="1" parent="0" />
        <mxCell id="ksZBvBwGwgeAwysO4N7S-1" value="" style="group;fontSize=30;" vertex="1" connectable="0" parent="1">
          <mxGeometry x="-850" width="840.88" height="890" as="geometry" />
        </mxCell>
        <mxCell id="ksZBvBwGwgeAwysO4N7S-2" value="" style="rounded=1;whiteSpace=wrap;html=1;rotation=90;fillColor=none;strokeColor=#97D077;fontFamily=Times New Roman;fontSize=30;" vertex="1" parent="ksZBvBwGwgeAwysO4N7S-1">
          <mxGeometry x="369.8716151202749" y="309.1883116883117" width="757.0809621993127" height="138.7012987012987" as="geometry" />
        </mxCell>
        <mxCell id="ksZBvBwGwgeAwysO4N7S-3" value="" style="rounded=1;whiteSpace=wrap;html=1;rotation=90;fillColor=none;strokeColor=#66B2FF;fontFamily=Times New Roman;fontSize=30;" vertex="1" parent="ksZBvBwGwgeAwysO4N7S-1">
          <mxGeometry x="131.76676288659795" y="305.14285714285717" width="568.6776082474227" height="138.7012987012987" as="geometry" />
        </mxCell>
        <mxCell id="ksZBvBwGwgeAwysO4N7S-4" value="" style="rounded=1;whiteSpace=wrap;html=1;rotation=90;fillColor=none;fontColor=#000000;strokeColor=#FF3333;fontFamily=Times New Roman;fontSize=30;" vertex="1" parent="ksZBvBwGwgeAwysO4N7S-1">
          <mxGeometry x="-286.07257731958765" y="309.1883116883117" width="757.0809621993127" height="138.7012987012987" as="geometry" />
        </mxCell>
        <mxCell id="ksZBvBwGwgeAwysO4N7S-5" value="x1" style="ellipse;whiteSpace=wrap;html=1;aspect=fixed;fillColor=#FF3333;fontFamily=Times New Roman;fontSize=30;" vertex="1" parent="ksZBvBwGwgeAwysO4N7S-1">
          <mxGeometry x="46.23395189003436" y="57.7922077922078" width="92.46753246753246" height="92.46753246753246" as="geometry" />
        </mxCell>
        <mxCell id="ksZBvBwGwgeAwysO4N7S-6" style="edgeStyle=none;rounded=0;orthogonalLoop=1;jettySize=auto;html=1;exitX=1;exitY=0.5;exitDx=0;exitDy=0;endArrow=blockThin;endFill=1;fontFamily=Times New Roman;fontSize=30;" edge="1" parent="ksZBvBwGwgeAwysO4N7S-1" source="ksZBvBwGwgeAwysO4N7S-8">
          <mxGeometry relative="1" as="geometry">
            <mxPoint x="369.8716151202749" y="381.42857142857144" as="targetPoint" />
          </mxGeometry>
        </mxCell>
        <mxCell id="ksZBvBwGwgeAwysO4N7S-7" style="edgeStyle=none;rounded=0;orthogonalLoop=1;jettySize=auto;html=1;exitX=1;exitY=0.5;exitDx=0;exitDy=0;endArrow=blockThin;endFill=1;fontFamily=Times New Roman;fontSize=30;" edge="1" parent="ksZBvBwGwgeAwysO4N7S-1" source="ksZBvBwGwgeAwysO4N7S-8">
          <mxGeometry relative="1" as="geometry">
            <mxPoint x="369.8716151202749" y="566.3636363636364" as="targetPoint" />
          </mxGeometry>
        </mxCell>
        <mxCell id="ksZBvBwGwgeAwysO4N7S-8" value="x2" style="ellipse;whiteSpace=wrap;html=1;aspect=fixed;fillColor=#FF3333;fontFamily=Times New Roman;fontSize=30;" vertex="1" parent="ksZBvBwGwgeAwysO4N7S-1">
          <mxGeometry x="46.23395189003436" y="242.72727272727275" width="92.46753246753246" height="92.46753246753246" as="geometry" />
        </mxCell>
        <mxCell id="ksZBvBwGwgeAwysO4N7S-9" style="edgeStyle=none;rounded=0;orthogonalLoop=1;jettySize=auto;html=1;exitX=1;exitY=0.5;exitDx=0;exitDy=0;endArrow=blockThin;endFill=1;fontFamily=Times New Roman;fontSize=30;" edge="1" parent="ksZBvBwGwgeAwysO4N7S-1" source="ksZBvBwGwgeAwysO4N7S-12">
          <mxGeometry relative="1" as="geometry">
            <mxPoint x="369.8716151202749" y="196.49350649350652" as="targetPoint" />
          </mxGeometry>
        </mxCell>
        <mxCell id="ksZBvBwGwgeAwysO4N7S-10" style="edgeStyle=none;rounded=0;orthogonalLoop=1;jettySize=auto;html=1;exitX=1;exitY=0.5;exitDx=0;exitDy=0;endArrow=blockThin;endFill=1;fontFamily=Times New Roman;fontSize=30;" edge="1" parent="ksZBvBwGwgeAwysO4N7S-1" source="ksZBvBwGwgeAwysO4N7S-12">
          <mxGeometry relative="1" as="geometry">
            <mxPoint x="369.8716151202749" y="381.42857142857144" as="targetPoint" />
          </mxGeometry>
        </mxCell>
        <mxCell id="ksZBvBwGwgeAwysO4N7S-11" style="edgeStyle=none;rounded=0;orthogonalLoop=1;jettySize=auto;html=1;exitX=1;exitY=0.5;exitDx=0;exitDy=0;endArrow=blockThin;endFill=1;fontFamily=Times New Roman;fontSize=30;" edge="1" parent="ksZBvBwGwgeAwysO4N7S-1" source="ksZBvBwGwgeAwysO4N7S-12">
          <mxGeometry relative="1" as="geometry">
            <mxPoint x="369.8716151202749" y="566.3636363636364" as="targetPoint" />
          </mxGeometry>
        </mxCell>
        <mxCell id="ksZBvBwGwgeAwysO4N7S-12" value="x3" style="ellipse;whiteSpace=wrap;html=1;aspect=fixed;fillColor=#FF3333;fontFamily=Times New Roman;fontSize=30;" vertex="1" parent="ksZBvBwGwgeAwysO4N7S-1">
          <mxGeometry x="46.23395189003436" y="427.6623376623377" width="92.46753246753246" height="92.46753246753246" as="geometry" />
        </mxCell>
        <mxCell id="ksZBvBwGwgeAwysO4N7S-13" style="edgeStyle=none;rounded=0;orthogonalLoop=1;jettySize=auto;html=1;exitX=1;exitY=0.5;exitDx=0;exitDy=0;endArrow=blockThin;endFill=1;fontFamily=Times New Roman;fontSize=30;" edge="1" parent="ksZBvBwGwgeAwysO4N7S-1" source="ksZBvBwGwgeAwysO4N7S-16">
          <mxGeometry relative="1" as="geometry">
            <mxPoint x="369.8716151202749" y="196.49350649350652" as="targetPoint" />
          </mxGeometry>
        </mxCell>
        <mxCell id="ksZBvBwGwgeAwysO4N7S-14" style="edgeStyle=none;rounded=0;orthogonalLoop=1;jettySize=auto;html=1;exitX=1;exitY=0.5;exitDx=0;exitDy=0;endArrow=blockThin;endFill=1;fontFamily=Times New Roman;fontSize=30;" edge="1" parent="ksZBvBwGwgeAwysO4N7S-1" source="ksZBvBwGwgeAwysO4N7S-16">
          <mxGeometry relative="1" as="geometry">
            <mxPoint x="369.8716151202749" y="381.42857142857144" as="targetPoint" />
          </mxGeometry>
        </mxCell>
        <mxCell id="ksZBvBwGwgeAwysO4N7S-15" style="edgeStyle=none;rounded=0;orthogonalLoop=1;jettySize=auto;html=1;exitX=1;exitY=0.5;exitDx=0;exitDy=0;endArrow=blockThin;endFill=1;fontFamily=Times New Roman;fontSize=30;" edge="1" parent="ksZBvBwGwgeAwysO4N7S-1" source="ksZBvBwGwgeAwysO4N7S-16">
          <mxGeometry relative="1" as="geometry">
            <mxPoint x="369.8716151202749" y="566.3636363636364" as="targetPoint" />
          </mxGeometry>
        </mxCell>
        <mxCell id="ksZBvBwGwgeAwysO4N7S-16" value="x4" style="ellipse;whiteSpace=wrap;html=1;aspect=fixed;fillColor=#FF3333;fontFamily=Times New Roman;fontSize=30;" vertex="1" parent="ksZBvBwGwgeAwysO4N7S-1">
          <mxGeometry x="46.23395189003436" y="612.5974025974026" width="92.46753246753246" height="92.46753246753246" as="geometry" />
        </mxCell>
        <mxCell id="ksZBvBwGwgeAwysO4N7S-17" value="y1" style="ellipse;whiteSpace=wrap;html=1;aspect=fixed;fillColor=#99FF33;fontFamily=Times New Roman;fontSize=30;" vertex="1" parent="ksZBvBwGwgeAwysO4N7S-1">
          <mxGeometry x="702.1781443298969" y="57.7922077922078" width="92.46753246753246" height="92.46753246753246" as="geometry" />
        </mxCell>
        <mxCell id="ksZBvBwGwgeAwysO4N7S-18" value="y2" style="ellipse;whiteSpace=wrap;html=1;aspect=fixed;fillColor=#99FF33;fontFamily=Times New Roman;fontSize=30;" vertex="1" parent="ksZBvBwGwgeAwysO4N7S-1">
          <mxGeometry x="702.1781443298969" y="242.72727272727275" width="92.46753246753246" height="92.46753246753246" as="geometry" />
        </mxCell>
        <mxCell id="ksZBvBwGwgeAwysO4N7S-19" value="y3" style="ellipse;whiteSpace=wrap;html=1;aspect=fixed;fillColor=#99FF33;fontFamily=Times New Roman;fontSize=30;" vertex="1" parent="ksZBvBwGwgeAwysO4N7S-1">
          <mxGeometry x="702.1781443298969" y="427.6623376623377" width="92.46753246753246" height="92.46753246753246" as="geometry" />
        </mxCell>
        <mxCell id="ksZBvBwGwgeAwysO4N7S-20" value="y4" style="ellipse;whiteSpace=wrap;html=1;aspect=fixed;fillColor=#99FF33;fontFamily=Times New Roman;fontSize=30;" vertex="1" parent="ksZBvBwGwgeAwysO4N7S-1">
          <mxGeometry x="702.1781443298969" y="612.5974025974026" width="92.46753246753246" height="92.46753246753246" as="geometry" />
        </mxCell>
        <mxCell id="ksZBvBwGwgeAwysO4N7S-21" style="edgeStyle=none;rounded=0;orthogonalLoop=1;jettySize=auto;html=1;exitX=1;exitY=0.5;exitDx=0;exitDy=0;entryX=0;entryY=0.5;entryDx=0;entryDy=0;endArrow=blockThin;endFill=1;fontFamily=Times New Roman;fontSize=30;" edge="1" parent="ksZBvBwGwgeAwysO4N7S-1" source="ksZBvBwGwgeAwysO4N7S-25" target="ksZBvBwGwgeAwysO4N7S-17">
          <mxGeometry relative="1" as="geometry" />
        </mxCell>
        <mxCell id="ksZBvBwGwgeAwysO4N7S-22" style="edgeStyle=none;rounded=0;orthogonalLoop=1;jettySize=auto;html=1;exitX=1;exitY=0.5;exitDx=0;exitDy=0;entryX=0;entryY=0.5;entryDx=0;entryDy=0;endArrow=blockThin;endFill=1;fontFamily=Times New Roman;fontSize=30;" edge="1" parent="ksZBvBwGwgeAwysO4N7S-1" source="ksZBvBwGwgeAwysO4N7S-25" target="ksZBvBwGwgeAwysO4N7S-18">
          <mxGeometry relative="1" as="geometry" />
        </mxCell>
        <mxCell id="ksZBvBwGwgeAwysO4N7S-23" style="edgeStyle=none;rounded=0;orthogonalLoop=1;jettySize=auto;html=1;exitX=1;exitY=0.5;exitDx=0;exitDy=0;entryX=0;entryY=0.5;entryDx=0;entryDy=0;endArrow=blockThin;endFill=1;fontFamily=Times New Roman;fontSize=30;" edge="1" parent="ksZBvBwGwgeAwysO4N7S-1" source="ksZBvBwGwgeAwysO4N7S-25" target="ksZBvBwGwgeAwysO4N7S-19">
          <mxGeometry relative="1" as="geometry" />
        </mxCell>
        <mxCell id="ksZBvBwGwgeAwysO4N7S-24" style="edgeStyle=none;rounded=0;orthogonalLoop=1;jettySize=auto;html=1;exitX=1;exitY=0.5;exitDx=0;exitDy=0;entryX=0;entryY=0.5;entryDx=0;entryDy=0;endArrow=blockThin;endFill=1;fontFamily=Times New Roman;fontSize=30;" edge="1" parent="ksZBvBwGwgeAwysO4N7S-1" source="ksZBvBwGwgeAwysO4N7S-25" target="ksZBvBwGwgeAwysO4N7S-20">
          <mxGeometry relative="1" as="geometry" />
        </mxCell>
        <mxCell id="ksZBvBwGwgeAwysO4N7S-25" value="h1" style="ellipse;whiteSpace=wrap;html=1;aspect=fixed;fillColor=#66B2FF;fontFamily=Times New Roman;fontSize=30;" vertex="1" parent="ksZBvBwGwgeAwysO4N7S-1">
          <mxGeometry x="369.8716151202749" y="150.25974025974025" width="92.46753246753246" height="92.46753246753246" as="geometry" />
        </mxCell>
        <mxCell id="ksZBvBwGwgeAwysO4N7S-26" style="rounded=0;orthogonalLoop=1;jettySize=auto;html=1;exitX=1;exitY=0.5;exitDx=0;exitDy=0;entryX=0;entryY=0.5;entryDx=0;entryDy=0;endArrow=blockThin;endFill=1;fontFamily=Times New Roman;fontSize=30;" edge="1" parent="ksZBvBwGwgeAwysO4N7S-1" source="ksZBvBwGwgeAwysO4N7S-5" target="ksZBvBwGwgeAwysO4N7S-25">
          <mxGeometry relative="1" as="geometry" />
        </mxCell>
        <mxCell id="ksZBvBwGwgeAwysO4N7S-27" style="edgeStyle=none;rounded=0;orthogonalLoop=1;jettySize=auto;html=1;exitX=1;exitY=0.5;exitDx=0;exitDy=0;entryX=0;entryY=0.5;entryDx=0;entryDy=0;endArrow=blockThin;endFill=1;fontFamily=Times New Roman;fontSize=30;" edge="1" parent="ksZBvBwGwgeAwysO4N7S-1" source="ksZBvBwGwgeAwysO4N7S-8" target="ksZBvBwGwgeAwysO4N7S-25">
          <mxGeometry relative="1" as="geometry" />
        </mxCell>
        <mxCell id="ksZBvBwGwgeAwysO4N7S-28" style="edgeStyle=none;rounded=0;orthogonalLoop=1;jettySize=auto;html=1;exitX=1;exitY=0.5;exitDx=0;exitDy=0;entryX=0;entryY=0.5;entryDx=0;entryDy=0;endArrow=blockThin;endFill=1;fontFamily=Times New Roman;fontSize=30;" edge="1" parent="ksZBvBwGwgeAwysO4N7S-1" source="ksZBvBwGwgeAwysO4N7S-32" target="ksZBvBwGwgeAwysO4N7S-17">
          <mxGeometry relative="1" as="geometry" />
        </mxCell>
        <mxCell id="ksZBvBwGwgeAwysO4N7S-29" style="edgeStyle=none;rounded=0;orthogonalLoop=1;jettySize=auto;html=1;exitX=1;exitY=0.5;exitDx=0;exitDy=0;entryX=0;entryY=0.5;entryDx=0;entryDy=0;endArrow=blockThin;endFill=1;fontFamily=Times New Roman;fontSize=30;" edge="1" parent="ksZBvBwGwgeAwysO4N7S-1" source="ksZBvBwGwgeAwysO4N7S-32" target="ksZBvBwGwgeAwysO4N7S-18">
          <mxGeometry relative="1" as="geometry" />
        </mxCell>
        <mxCell id="ksZBvBwGwgeAwysO4N7S-30" style="edgeStyle=none;rounded=0;orthogonalLoop=1;jettySize=auto;html=1;exitX=1;exitY=0.5;exitDx=0;exitDy=0;entryX=0;entryY=0.5;entryDx=0;entryDy=0;endArrow=blockThin;endFill=1;fontFamily=Times New Roman;fontSize=30;" edge="1" parent="ksZBvBwGwgeAwysO4N7S-1" source="ksZBvBwGwgeAwysO4N7S-32" target="ksZBvBwGwgeAwysO4N7S-19">
          <mxGeometry relative="1" as="geometry" />
        </mxCell>
        <mxCell id="ksZBvBwGwgeAwysO4N7S-31" style="edgeStyle=none;rounded=0;orthogonalLoop=1;jettySize=auto;html=1;exitX=1;exitY=0.5;exitDx=0;exitDy=0;entryX=0;entryY=0.5;entryDx=0;entryDy=0;endArrow=blockThin;endFill=1;fontFamily=Times New Roman;fontSize=30;" edge="1" parent="ksZBvBwGwgeAwysO4N7S-1" source="ksZBvBwGwgeAwysO4N7S-32" target="ksZBvBwGwgeAwysO4N7S-20">
          <mxGeometry relative="1" as="geometry" />
        </mxCell>
        <mxCell id="ksZBvBwGwgeAwysO4N7S-32" value="h2" style="ellipse;whiteSpace=wrap;html=1;aspect=fixed;fillColor=#66B2FF;fontFamily=Times New Roman;fontSize=30;" vertex="1" parent="ksZBvBwGwgeAwysO4N7S-1">
          <mxGeometry x="369.8716151202749" y="332.30519480519484" width="92.46753246753246" height="92.46753246753246" as="geometry" />
        </mxCell>
        <mxCell id="ksZBvBwGwgeAwysO4N7S-33" style="edgeStyle=none;rounded=0;orthogonalLoop=1;jettySize=auto;html=1;exitX=1;exitY=0.5;exitDx=0;exitDy=0;entryX=0;entryY=0.5;entryDx=0;entryDy=0;endArrow=blockThin;endFill=1;fontFamily=Times New Roman;fontSize=30;" edge="1" parent="ksZBvBwGwgeAwysO4N7S-1" source="ksZBvBwGwgeAwysO4N7S-5" target="ksZBvBwGwgeAwysO4N7S-32">
          <mxGeometry relative="1" as="geometry" />
        </mxCell>
        <mxCell id="ksZBvBwGwgeAwysO4N7S-34" style="edgeStyle=none;rounded=0;orthogonalLoop=1;jettySize=auto;html=1;exitX=1;exitY=0.5;exitDx=0;exitDy=0;entryX=0;entryY=0.5;entryDx=0;entryDy=0;endArrow=blockThin;endFill=1;fontFamily=Times New Roman;fontSize=30;" edge="1" parent="ksZBvBwGwgeAwysO4N7S-1" source="ksZBvBwGwgeAwysO4N7S-38" target="ksZBvBwGwgeAwysO4N7S-17">
          <mxGeometry relative="1" as="geometry" />
        </mxCell>
        <mxCell id="ksZBvBwGwgeAwysO4N7S-35" style="edgeStyle=none;rounded=0;orthogonalLoop=1;jettySize=auto;html=1;exitX=1;exitY=0.5;exitDx=0;exitDy=0;entryX=0;entryY=0.5;entryDx=0;entryDy=0;endArrow=blockThin;endFill=1;fontFamily=Times New Roman;fontSize=30;" edge="1" parent="ksZBvBwGwgeAwysO4N7S-1" source="ksZBvBwGwgeAwysO4N7S-38" target="ksZBvBwGwgeAwysO4N7S-18">
          <mxGeometry relative="1" as="geometry" />
        </mxCell>
        <mxCell id="ksZBvBwGwgeAwysO4N7S-36" style="edgeStyle=none;rounded=0;orthogonalLoop=1;jettySize=auto;html=1;exitX=1;exitY=0.5;exitDx=0;exitDy=0;entryX=0;entryY=0.5;entryDx=0;entryDy=0;endArrow=blockThin;endFill=1;fontFamily=Times New Roman;fontSize=30;" edge="1" parent="ksZBvBwGwgeAwysO4N7S-1" source="ksZBvBwGwgeAwysO4N7S-38" target="ksZBvBwGwgeAwysO4N7S-19">
          <mxGeometry relative="1" as="geometry" />
        </mxCell>
        <mxCell id="ksZBvBwGwgeAwysO4N7S-37" style="edgeStyle=none;rounded=0;orthogonalLoop=1;jettySize=auto;html=1;exitX=1;exitY=0.5;exitDx=0;exitDy=0;entryX=0;entryY=0.5;entryDx=0;entryDy=0;endArrow=blockThin;endFill=1;fontFamily=Times New Roman;fontSize=30;" edge="1" parent="ksZBvBwGwgeAwysO4N7S-1" source="ksZBvBwGwgeAwysO4N7S-38" target="ksZBvBwGwgeAwysO4N7S-20">
          <mxGeometry relative="1" as="geometry" />
        </mxCell>
        <mxCell id="ksZBvBwGwgeAwysO4N7S-38" value="h3" style="ellipse;whiteSpace=wrap;html=1;aspect=fixed;fillColor=#66B2FF;fontFamily=Times New Roman;fontSize=30;" vertex="1" parent="ksZBvBwGwgeAwysO4N7S-1">
          <mxGeometry x="369.8716151202749" y="520.1298701298701" width="92.46753246753246" height="92.46753246753246" as="geometry" />
        </mxCell>
        <mxCell id="ksZBvBwGwgeAwysO4N7S-39" style="edgeStyle=none;rounded=0;orthogonalLoop=1;jettySize=auto;html=1;exitX=1;exitY=0.5;exitDx=0;exitDy=0;entryX=0;entryY=0.5;entryDx=0;entryDy=0;endArrow=blockThin;endFill=1;fontFamily=Times New Roman;fontSize=30;" edge="1" parent="ksZBvBwGwgeAwysO4N7S-1" source="ksZBvBwGwgeAwysO4N7S-5" target="ksZBvBwGwgeAwysO4N7S-38">
          <mxGeometry relative="1" as="geometry" />
        </mxCell>
        <mxCell id="ksZBvBwGwgeAwysO4N7S-40" value="Hidden layer" style="rounded=1;whiteSpace=wrap;html=1;strokeColor=#66B2FF;fillColor=#66B2FF;fontFamily=Times New Roman;fontSize=30;" vertex="1" parent="ksZBvBwGwgeAwysO4N7S-1">
          <mxGeometry x="323.63766323024055" y="797.5324675324675" width="184.93580756013745" height="92.46753246753246" as="geometry" />
        </mxCell>
        <mxCell id="ksZBvBwGwgeAwysO4N7S-41" value="Input lyaer" style="rounded=1;whiteSpace=wrap;html=1;strokeColor=#66B2FF;fillColor=#FF3333;fontFamily=Times New Roman;fontSize=30;" vertex="1" parent="ksZBvBwGwgeAwysO4N7S-1">
          <mxGeometry y="797.5324675324675" width="184.93580756013745" height="92.46753246753246" as="geometry" />
        </mxCell>
        <mxCell id="ksZBvBwGwgeAwysO4N7S-42" value="Output layer" style="rounded=1;whiteSpace=wrap;html=1;strokeColor=#66B2FF;fillColor=#99FF33;fontFamily=Times New Roman;fontSize=30;" vertex="1" parent="ksZBvBwGwgeAwysO4N7S-1">
          <mxGeometry x="655.9441924398625" y="797.5324675324675" width="184.93580756013745" height="92.46753246753246" as="geometry" />
        </mxCell>
      </root>
    </mxGraphModel>
  </diagram>
</mxfile>
